<?xml version="1.0" encoding="utf-8"?>
<!-- Generator: Adobe Illustrator 24.0.2, SVG Export Plug-In . SVG Version: 6.00 Build 0)  -->
<svg version="1.1" id="Capa_1" xmlns="http://www.w3.org/2000/svg" xmlns:xlink="http://www.w3.org/1999/xlink" x="0px" y="0px"
	 viewBox="0 0 2458 512" style="enable-background:new 0 0 2458 512;" xml:space="preserve">
<style type="text/css">
	.st0{fill:#FFFFFF;}
</style>
<title>logo-dark</title>
<path class="st0" d="M1265.2,391.7c-20.5,0-40.9,0-61.4,0c-15.2,0-25.2,6.3-29.8,21.6c-5,16.5-11.2,32.6-17.1,48.8
	c-7.8,21.4-18.9,28-41.1,24.6c-126.9-19.4-194.6-172.1-123.3-279c37-55.4,89.9-84.1,156.1-87c33.8-1.5,67.7-0.8,101.6-0.4
	c18.3,0.2,30.4-6.1,35.4-24.9c4.1-15.4,10.1-30.3,15.4-45.4c7.8-22.5,16.5-27.8,40.5-24.8c77,9.7,142.2,77.1,151.4,156.5
	c13.3,114.9-70.1,209.3-185.6,209.9C1293.3,391.8,1279.2,391.7,1265.2,391.7z M1305.1,122.5c-18.8-3.4-29.4,6.9-35.9,27.4
	c-14.5,45.7-48.7,69.3-96.5,69.8c-10.9,0.1-21.8-0.1-32.5,1.3c-48.8,6.5-79.8,43.8-76.5,91.3c3.1,44.6,41.6,77.5,89.1,77.7
	c18.7,0.1,29.4-7,35.7-24.9c19.1-54.9,55.6-78.3,112.7-73.9c50.8,3.9,92.5-32.1,94.4-81.5C1397.4,161.9,1358.1,122.7,1305.1,122.5z"
	/>
</svg>
