<?xml version="1.0" encoding="utf-8"?>
<!-- Generator: Adobe Illustrator 24.0.2, SVG Export Plug-In . SVG Version: 6.00 Build 0)  -->
<svg version="1.1" id="Capa_1" xmlns="http://www.w3.org/2000/svg" xmlns:xlink="http://www.w3.org/1999/xlink" x="0px" y="0px"
	 viewBox="0 0 512 512" style="enable-background:new 0 0 512 512;" xml:space="preserve">
<style type="text/css">
	.st0{fill:#4949E9;}
</style>
<title>woot-log</title>
<desc>Created with Sketch.</desc>
<path class="st0" d="M288.4,377.4c-18.3,0-36.6,0-54.9,0c-13.6,0-22.5,5.6-26.6,19.3c-4.4,14.8-10,29.2-15.3,43.7
	c-7,19.2-16.9,25-36.7,22C41.3,444.9-19.2,308.4,44.6,212.8c33.1-49.5,80.4-75.2,139.6-77.8c30.2-1.3,60.6-0.7,90.9-0.3
	c16.4,0.2,27.1-5.5,31.7-22.3c3.7-13.8,9.1-27.1,13.7-40.6c7-20.1,14.8-24.9,36.2-22.2c68.9,8.6,127.2,68.9,135.4,140
	c11.9,102.8-62.7,187.2-166,187.7C313.5,377.4,300.9,377.4,288.4,377.4z M324.1,136.6c-16.8-3-26.3,6.2-32.1,24.5
	c-13,40.8-43.5,61.9-86.3,62.4c-9.7,0.1-19.5-0.1-29.1,1.2c-43.6,5.8-71.4,39.2-68.4,81.7c2.8,39.9,37.2,69.3,79.7,69.5
	c16.7,0.1,26.3-6.3,31.9-22.2c17.1-49.1,49.7-70.1,100.8-66.1c45.4,3.5,82.7-28.7,84.5-72.9C406.6,171.8,371.5,136.8,324.1,136.6z"
	/>
</svg>
